<mxfile host="app.diagrams.net" modified="2024-01-08T15:59:01.187Z" agent="Mozilla/5.0 (Windows NT 10.0; Win64; x64) AppleWebKit/537.36 (KHTML, like Gecko) Chrome/118.0.0.0 YaBrowser/23.11.0.0 Safari/537.36" etag="MwG7lBEMA1n-AhEpBxre" version="22.1.17" type="device">
  <diagram name="Страница — 1" id="YQ8zjb5FXmhoziPSlZbk">
    <mxGraphModel dx="1434" dy="801" grid="1" gridSize="10" guides="1" tooltips="1" connect="1" arrows="1" fold="1" page="1" pageScale="1" pageWidth="827" pageHeight="1169" math="0" shadow="0">
      <root>
        <mxCell id="0" />
        <mxCell id="1" parent="0" />
        <mxCell id="zhoPB9RiSd84OF5wk_GK-30" value="Animal Class" style="swimlane;childLayout=stackLayout;horizontal=1;startSize=50;horizontalStack=0;rounded=1;fontSize=14;fontStyle=0;strokeWidth=2;resizeParent=0;resizeLast=1;shadow=0;dashed=0;align=center;arcSize=4;whiteSpace=wrap;html=1;" vertex="1" parent="1">
          <mxGeometry x="320" y="160" width="160" height="90" as="geometry">
            <mxRectangle x="320" y="160" width="120" height="50" as="alternateBounds" />
          </mxGeometry>
        </mxCell>
        <mxCell id="zhoPB9RiSd84OF5wk_GK-50" value="INFO FIELDS" style="text;html=1;align=center;verticalAlign=middle;resizable=0;points=[];autosize=1;strokeColor=none;fillColor=none;" vertex="1" parent="zhoPB9RiSd84OF5wk_GK-30">
          <mxGeometry y="50" width="160" height="40" as="geometry" />
        </mxCell>
        <mxCell id="zhoPB9RiSd84OF5wk_GK-48" style="edgeStyle=orthogonalEdgeStyle;rounded=0;orthogonalLoop=1;jettySize=auto;html=1;exitX=0.5;exitY=0;exitDx=0;exitDy=0;entryX=0.75;entryY=1;entryDx=0;entryDy=0;" edge="1" parent="1" source="zhoPB9RiSd84OF5wk_GK-33" target="zhoPB9RiSd84OF5wk_GK-30">
          <mxGeometry relative="1" as="geometry" />
        </mxCell>
        <mxCell id="zhoPB9RiSd84OF5wk_GK-33" value="homeAnimals class" style="swimlane;childLayout=stackLayout;horizontal=1;startSize=50;horizontalStack=0;rounded=1;fontSize=14;fontStyle=0;strokeWidth=2;resizeParent=0;resizeLast=1;shadow=0;dashed=0;align=center;arcSize=4;whiteSpace=wrap;html=1;" vertex="1" parent="1">
          <mxGeometry x="520" y="320" width="160" height="90" as="geometry" />
        </mxCell>
        <mxCell id="zhoPB9RiSd84OF5wk_GK-49" style="edgeStyle=orthogonalEdgeStyle;rounded=0;orthogonalLoop=1;jettySize=auto;html=1;exitX=0.5;exitY=0;exitDx=0;exitDy=0;entryX=0.25;entryY=1;entryDx=0;entryDy=0;" edge="1" parent="1" source="zhoPB9RiSd84OF5wk_GK-35" target="zhoPB9RiSd84OF5wk_GK-30">
          <mxGeometry relative="1" as="geometry" />
        </mxCell>
        <mxCell id="zhoPB9RiSd84OF5wk_GK-35" value="packedAnimals class" style="swimlane;childLayout=stackLayout;horizontal=1;startSize=50;horizontalStack=0;rounded=1;fontSize=14;fontStyle=0;strokeWidth=2;resizeParent=0;resizeLast=1;shadow=0;dashed=0;align=center;arcSize=4;whiteSpace=wrap;html=1;" vertex="1" parent="1">
          <mxGeometry x="120" y="320" width="160" height="90" as="geometry" />
        </mxCell>
        <mxCell id="zhoPB9RiSd84OF5wk_GK-51" value="INFO FIELDS" style="text;html=1;align=center;verticalAlign=middle;resizable=0;points=[];autosize=1;strokeColor=none;fillColor=none;" vertex="1" parent="zhoPB9RiSd84OF5wk_GK-35">
          <mxGeometry y="50" width="160" height="40" as="geometry" />
        </mxCell>
        <mxCell id="zhoPB9RiSd84OF5wk_GK-45" style="edgeStyle=orthogonalEdgeStyle;rounded=0;orthogonalLoop=1;jettySize=auto;html=1;exitX=0.5;exitY=0;exitDx=0;exitDy=0;entryX=0;entryY=1;entryDx=0;entryDy=0;" edge="1" parent="1" source="zhoPB9RiSd84OF5wk_GK-36" target="zhoPB9RiSd84OF5wk_GK-33">
          <mxGeometry relative="1" as="geometry" />
        </mxCell>
        <mxCell id="zhoPB9RiSd84OF5wk_GK-36" value="Dog Class" style="swimlane;childLayout=stackLayout;horizontal=1;startSize=50;horizontalStack=0;rounded=1;fontSize=14;fontStyle=0;strokeWidth=2;resizeParent=0;resizeLast=1;shadow=0;dashed=0;align=center;arcSize=4;whiteSpace=wrap;html=1;" vertex="1" parent="1">
          <mxGeometry x="420" y="470" width="100" height="90" as="geometry" />
        </mxCell>
        <mxCell id="zhoPB9RiSd84OF5wk_GK-56" value="INFO FIELDS" style="text;html=1;align=center;verticalAlign=middle;resizable=0;points=[];autosize=1;strokeColor=none;fillColor=none;" vertex="1" parent="zhoPB9RiSd84OF5wk_GK-36">
          <mxGeometry y="50" width="100" height="40" as="geometry" />
        </mxCell>
        <mxCell id="zhoPB9RiSd84OF5wk_GK-46" style="edgeStyle=orthogonalEdgeStyle;rounded=0;orthogonalLoop=1;jettySize=auto;html=1;exitX=0.5;exitY=0;exitDx=0;exitDy=0;entryX=0.5;entryY=1;entryDx=0;entryDy=0;" edge="1" parent="1" source="zhoPB9RiSd84OF5wk_GK-37" target="zhoPB9RiSd84OF5wk_GK-33">
          <mxGeometry relative="1" as="geometry" />
        </mxCell>
        <mxCell id="zhoPB9RiSd84OF5wk_GK-37" value="Cat Class" style="swimlane;childLayout=stackLayout;horizontal=1;startSize=50;horizontalStack=0;rounded=1;fontSize=14;fontStyle=0;strokeWidth=2;resizeParent=0;resizeLast=1;shadow=0;dashed=0;align=center;arcSize=4;whiteSpace=wrap;html=1;" vertex="1" parent="1">
          <mxGeometry x="550" y="470" width="100" height="90" as="geometry" />
        </mxCell>
        <mxCell id="zhoPB9RiSd84OF5wk_GK-57" value="INFO FIELDS" style="text;html=1;align=center;verticalAlign=middle;resizable=0;points=[];autosize=1;strokeColor=none;fillColor=none;" vertex="1" parent="zhoPB9RiSd84OF5wk_GK-37">
          <mxGeometry y="50" width="100" height="40" as="geometry" />
        </mxCell>
        <mxCell id="zhoPB9RiSd84OF5wk_GK-47" style="edgeStyle=orthogonalEdgeStyle;rounded=0;orthogonalLoop=1;jettySize=auto;html=1;exitX=0.5;exitY=0;exitDx=0;exitDy=0;entryX=1;entryY=1;entryDx=0;entryDy=0;" edge="1" parent="1" source="zhoPB9RiSd84OF5wk_GK-38" target="zhoPB9RiSd84OF5wk_GK-33">
          <mxGeometry relative="1" as="geometry" />
        </mxCell>
        <mxCell id="zhoPB9RiSd84OF5wk_GK-38" value="Hamster Class" style="swimlane;childLayout=stackLayout;horizontal=1;startSize=50;horizontalStack=0;rounded=1;fontSize=14;fontStyle=0;strokeWidth=2;resizeParent=0;resizeLast=1;shadow=0;dashed=0;align=center;arcSize=4;whiteSpace=wrap;html=1;" vertex="1" parent="1">
          <mxGeometry x="680" y="470" width="100" height="90" as="geometry" />
        </mxCell>
        <mxCell id="zhoPB9RiSd84OF5wk_GK-58" value="INFO FIELDS" style="text;html=1;align=center;verticalAlign=middle;resizable=0;points=[];autosize=1;strokeColor=none;fillColor=none;" vertex="1" parent="zhoPB9RiSd84OF5wk_GK-38">
          <mxGeometry y="50" width="100" height="40" as="geometry" />
        </mxCell>
        <mxCell id="zhoPB9RiSd84OF5wk_GK-42" style="edgeStyle=orthogonalEdgeStyle;rounded=0;orthogonalLoop=1;jettySize=auto;html=1;entryX=0;entryY=1;entryDx=0;entryDy=0;" edge="1" parent="1" source="zhoPB9RiSd84OF5wk_GK-39" target="zhoPB9RiSd84OF5wk_GK-35">
          <mxGeometry relative="1" as="geometry" />
        </mxCell>
        <mxCell id="zhoPB9RiSd84OF5wk_GK-39" value="Horse Class" style="swimlane;childLayout=stackLayout;horizontal=1;startSize=50;horizontalStack=0;rounded=1;fontSize=14;fontStyle=0;strokeWidth=2;resizeParent=0;resizeLast=1;shadow=0;dashed=0;align=center;arcSize=4;whiteSpace=wrap;html=1;" vertex="1" parent="1">
          <mxGeometry x="20" y="470" width="100" height="90" as="geometry" />
        </mxCell>
        <mxCell id="zhoPB9RiSd84OF5wk_GK-53" value="INFO FIELDS" style="text;html=1;align=center;verticalAlign=middle;resizable=0;points=[];autosize=1;strokeColor=none;fillColor=none;" vertex="1" parent="zhoPB9RiSd84OF5wk_GK-39">
          <mxGeometry y="50" width="100" height="40" as="geometry" />
        </mxCell>
        <mxCell id="zhoPB9RiSd84OF5wk_GK-43" style="edgeStyle=orthogonalEdgeStyle;rounded=0;orthogonalLoop=1;jettySize=auto;html=1;exitX=0.5;exitY=0;exitDx=0;exitDy=0;entryX=0.5;entryY=1;entryDx=0;entryDy=0;" edge="1" parent="1" source="zhoPB9RiSd84OF5wk_GK-40" target="zhoPB9RiSd84OF5wk_GK-35">
          <mxGeometry relative="1" as="geometry" />
        </mxCell>
        <mxCell id="zhoPB9RiSd84OF5wk_GK-40" value="Camel Class" style="swimlane;childLayout=stackLayout;horizontal=1;startSize=50;horizontalStack=0;rounded=1;fontSize=14;fontStyle=0;strokeWidth=2;resizeParent=0;resizeLast=1;shadow=0;dashed=0;align=center;arcSize=4;whiteSpace=wrap;html=1;" vertex="1" parent="1">
          <mxGeometry x="150" y="470" width="100" height="90" as="geometry" />
        </mxCell>
        <mxCell id="zhoPB9RiSd84OF5wk_GK-54" value="INFO FIELDS" style="text;html=1;align=center;verticalAlign=middle;resizable=0;points=[];autosize=1;strokeColor=none;fillColor=none;" vertex="1" parent="zhoPB9RiSd84OF5wk_GK-40">
          <mxGeometry y="50" width="100" height="40" as="geometry" />
        </mxCell>
        <mxCell id="zhoPB9RiSd84OF5wk_GK-44" style="edgeStyle=orthogonalEdgeStyle;rounded=0;orthogonalLoop=1;jettySize=auto;html=1;exitX=0.5;exitY=0;exitDx=0;exitDy=0;entryX=1;entryY=1;entryDx=0;entryDy=0;" edge="1" parent="1" source="zhoPB9RiSd84OF5wk_GK-41" target="zhoPB9RiSd84OF5wk_GK-35">
          <mxGeometry relative="1" as="geometry" />
        </mxCell>
        <mxCell id="zhoPB9RiSd84OF5wk_GK-41" value="Donkey Class" style="swimlane;childLayout=stackLayout;horizontal=1;startSize=50;horizontalStack=0;rounded=1;fontSize=14;fontStyle=0;strokeWidth=2;resizeParent=0;resizeLast=1;shadow=0;dashed=0;align=center;arcSize=4;whiteSpace=wrap;html=1;" vertex="1" parent="1">
          <mxGeometry x="280" y="470" width="100" height="90" as="geometry" />
        </mxCell>
        <mxCell id="zhoPB9RiSd84OF5wk_GK-55" value="INFO FIELDS" style="text;html=1;align=center;verticalAlign=middle;resizable=0;points=[];autosize=1;strokeColor=none;fillColor=none;" vertex="1" parent="zhoPB9RiSd84OF5wk_GK-41">
          <mxGeometry y="50" width="100" height="40" as="geometry" />
        </mxCell>
        <mxCell id="zhoPB9RiSd84OF5wk_GK-52" value="INFO FIELDS" style="text;html=1;align=center;verticalAlign=middle;resizable=0;points=[];autosize=1;strokeColor=none;fillColor=none;" vertex="1" parent="1">
          <mxGeometry x="550" y="378" width="100" height="30" as="geometry" />
        </mxCell>
      </root>
    </mxGraphModel>
  </diagram>
</mxfile>
